<?xml version="1.0" encoding="utf-8"?>
<!-- Generator: Adobe Illustrator 16.0.3, SVG Export Plug-In . SVG Version: 6.00 Build 0)  -->
<!DOCTYPE svg PUBLIC "-//W3C//DTD SVG 1.1//EN" "http://www.w3.org/Graphics/SVG/1.1/DTD/svg11.dtd">
<svg version="1.1" xmlns="http://www.w3.org/2000/svg" xmlns:xlink="http://www.w3.org/1999/xlink" x="0px" y="0px" width="788px"
	 height="690px" viewBox="0 0 788 690" enable-background="new 0 0 788 690" xml:space="preserve">
<g id="レイヤー_1">
	<g>
		<g>
			<g>
				<g>
					<path fill="#FFFFFF" d="M723.28,637.534c2.425,7.918,15.812,11.516,28.66,11.563c13.456,0.049,26.216-4.023,27.255-11.77
						c1.089-9.256,1.672-21.32,2.477-35.454c0.612-10.776,2.173-22.687,2.617-35.501c0.393-11.281,1.12-23.212,1.381-35.569
						c0.244-11.561-0.412-23.502-0.284-35.605c0.124-11.759,0.056-23.68,0.07-35.593c0.014-11.938-0.067-23.857-0.165-35.594
						c-0.101-12.134,0.088-24.067-0.133-35.601c-0.238-12.405,0.537-24.383,0.159-35.621c-0.434-12.907-0.906-24.909-1.527-35.584
						c-0.846-14.541-2.424-26.661-3.62-35.438c-0.835-7.443-14.696-11.253-28.264-11.247c-12.938,0.006-25.366,3.684-27.595,11.465"
						/>
					<path fill="none" stroke="#5C1500" stroke-width="3.2" stroke-miterlimit="10" d="M723.28,637.534
						c2.425,7.918,15.812,11.516,28.66,11.563c13.456,0.049,26.216-4.023,27.255-11.77c1.089-9.256,1.672-21.32,2.477-35.454
						c0.612-10.776,2.173-22.687,2.617-35.501c0.393-11.281,1.12-23.212,1.381-35.569c0.244-11.561-0.412-23.502-0.284-35.605
						c0.124-11.759,0.056-23.68,0.07-35.593c0.014-11.938-0.067-23.857-0.165-35.594c-0.101-12.134,0.088-24.067-0.133-35.601
						c-0.238-12.405,0.537-24.383,0.159-35.621c-0.434-12.907-0.906-24.909-1.527-35.584c-0.846-14.541-2.424-26.661-3.62-35.438
						c-0.835-7.443-14.696-11.253-28.264-11.247c-12.938,0.006-25.366,3.684-27.595,11.465"/>
				</g>
			</g>
			<g>
				<path fill="#FFFFFF" d="M751.979,271.276c0.906,10.454,3.001,21.877,3.711,34.204c0.627,10.882-0.293,22.46,0.188,34.418
					c0.447,11.117,1.158,22.601,1.483,34.348c0.313,11.278,0.809,22.769,1.014,34.366c0.201,11.411,1.118,22.905,1.22,34.381
					c0.102,11.534-1.095,23.043-1.089,34.395c0.006,11.671,0.667,23.18,0.575,34.393c-0.098,11.846,0.367,23.37,0.166,34.396
					c-0.221,12.122-0.811,23.649-1.15,34.378c-0.401,12.692-0.051,24.313-0.606,34.412c-0.83,15.081-3.599,26.704-4.74,34.067"/>
				<path fill="none" stroke="#5C1500" stroke-width="8.8" stroke-miterlimit="10" d="M751.979,271.276
					c0.906,10.454,3.001,21.877,3.711,34.204c0.627,10.882-0.293,22.46,0.188,34.418c0.447,11.117,1.158,22.601,1.483,34.348
					c0.313,11.278,0.809,22.769,1.014,34.366c0.201,11.411,1.118,22.905,1.22,34.381c0.102,11.534-1.095,23.043-1.089,34.395
					c0.006,11.671,0.667,23.18,0.575,34.393c-0.098,11.846,0.367,23.37,0.166,34.396c-0.221,12.122-0.811,23.649-1.15,34.378
					c-0.401,12.692-0.051,24.313-0.606,34.412c-0.83,15.081-3.599,26.704-4.74,34.067"/>
			</g>
		</g>
	</g>
	<g>
		<g>
			<g>
				<g>
					<path fill="#FFFFFF" d="M65.904,636.706c-2.425,7.917-15.714,12.552-28.563,12.599c-13.456,0.049-27.347-4.892-28.387-12.637
						c-1.089-9.257-2.346-21.359-3.149-35.492c-0.613-10.777,0.363-22.815-0.083-35.629c-0.392-11.281-0.39-23.217-0.65-35.575
						c-0.244-11.56-2.148-23.459-2.276-35.563c-0.125-11.759,1.38-23.692,1.366-35.605c-0.014-11.937-0.961-23.862-0.864-35.599
						c0.101-12.135-0.059-24.074,0.162-35.607c0.238-12.405,1.19-24.335,1.568-35.573c0.434-12.907,0.002-24.935,0.623-35.61
						c0.846-14.541,3.167-26.558,4.363-35.334c0.835-7.443,13.791-10.538,27.357-10.531c12.937,0.006,25.069,2.94,27.298,10.721"/>
					<path fill="none" stroke="#5C1500" stroke-width="3.2" stroke-miterlimit="10" d="M65.904,636.706
						c-2.425,7.917-15.714,12.552-28.563,12.599c-13.456,0.049-27.347-4.892-28.387-12.637c-1.089-9.257-2.346-21.359-3.149-35.492
						c-0.613-10.777,0.363-22.815-0.083-35.629c-0.392-11.281-0.39-23.217-0.65-35.575c-0.244-11.56-2.148-23.459-2.276-35.563
						c-0.125-11.759,1.38-23.692,1.366-35.605c-0.014-11.937-0.961-23.862-0.864-35.599c0.101-12.135-0.059-24.074,0.162-35.607
						c0.238-12.405,1.19-24.335,1.568-35.573c0.434-12.907,0.002-24.935,0.623-35.61c0.846-14.541,3.167-26.558,4.363-35.334
						c0.835-7.443,13.791-10.538,27.357-10.531c12.937,0.006,25.069,2.94,27.298,10.721"/>
				</g>
			</g>
			<g>
				<path fill="none" stroke="#5C1500" stroke-width="8.8" stroke-miterlimit="10" d="M36.086,270.37
					c-0.907,10.453-1.113,22.021-1.823,34.348c-0.627,10.882-1.202,22.388-1.683,34.346c-0.447,11.117-1.792,22.594-2.117,34.341
					c-0.313,11.278-0.317,22.792-0.521,34.39c-0.202,11.411-0.035,22.923-0.137,34.398c-0.102,11.534,0.153,23.042,0.148,34.394
					c-0.006,11.671-0.458,23.185-0.367,34.397c0.097,11.846,1.25,23.348,1.451,34.374c0.221,12.122,0.275,23.652,0.614,34.381
					c0.401,12.692,0.253,24.29,0.809,34.39c0.83,15.081,1.73,26.928,2.872,34.291"/>
			</g>
		</g>
	</g>
	<g>
		<g>
			<g>
				<path fill="#5C1500" d="M533.138,88.999c-0.341,0.812-2.073,1.203-2.873,1.568c-15.623,7.13-15.853,6.627-31.476,13.757
					c-15.624,7.131-14.893,8.733-30.517,15.864c-15.623,7.13-15.692,6.977-31.315,14.107c-15.626,7.131-15.759,6.839-31.385,13.971
					c-15.625,7.131-15.604,7.177-31.23,14.309c-0.801,0.365-1.73-0.743-1.175-1.426c10.823-13.333,11.604-12.699,22.427-26.033
					c10.822-13.333,10.865-13.299,21.688-26.632c10.823-13.334,10.446-13.64,21.27-26.974c10.825-13.336,10.717-13.424,21.541-26.76
					c10.825-13.336,10.915-13.262,21.74-26.598c0.555-0.683,1.852-1.13,2.723-1.256c19.276-2.785,19.266-2.856,38.542-5.641
					c19.275-2.785,19.161-3.575,38.438-6.359c0.871-0.126,2.28,1.536,1.939,2.348c-7.533,17.96-8.573,17.524-15.884,35.576
					C540.277,70.876,540.671,71.039,533.138,88.999z"/>
				<path fill="none" stroke="#FFFFFF" stroke-width="3.2" stroke-miterlimit="10" d="M533.138,88.999
					c-0.341,0.812-2.073,1.203-2.873,1.568c-15.623,7.13-15.853,6.627-31.476,13.757c-15.624,7.131-14.893,8.733-30.517,15.864
					c-15.623,7.13-15.692,6.977-31.315,14.107c-15.626,7.131-15.759,6.839-31.385,13.971c-15.625,7.131-15.604,7.177-31.23,14.309
					c-0.801,0.365-1.73-0.743-1.175-1.426c10.823-13.333,11.604-12.699,22.427-26.033c10.822-13.333,10.865-13.299,21.688-26.632
					c10.823-13.334,10.446-13.64,21.27-26.974c10.825-13.336,10.717-13.424,21.541-26.76c10.825-13.336,10.915-13.262,21.74-26.598
					c0.555-0.683,1.852-1.13,2.723-1.256c19.276-2.785,19.266-2.856,38.542-5.641c19.275-2.785,19.161-3.575,38.438-6.359
					c0.871-0.126,2.28,1.536,1.939,2.348c-7.533,17.96-8.573,17.524-15.884,35.576C540.277,70.876,540.671,71.039,533.138,88.999z"
					/>
			</g>
			<g>
				<path fill="none" stroke="#FFFFFF" stroke-width="4" stroke-miterlimit="10" d="M521.842,80.149
					c-0.341,0.812-0.584,2.048-1.384,2.413c-17.41,7.946-17.128,8.563-34.538,16.509c-17.411,7.946-17.996,6.666-35.407,14.612
					c-17.412,7.947-16.814,9.257-34.227,17.204c-0.8,0.365-1.952-1.062-1.397-1.745c12.061-14.858,12.322-14.646,24.383-29.504
					c12.062-14.86,12.532-14.479,24.594-29.339c12.063-14.86,11.292-15.486,23.354-30.346c0.555-0.683,2.321-1.496,3.192-1.622
					c25.494-3.684,25.703-2.236,51.197-5.919c0.871-0.126,1.891,0.022,1.55,0.833C532.521,56.71,531.806,56.394,521.842,80.149z"/>
			</g>
		</g>
	</g>
	<g>
		<g>
			<g>
				<path fill="#FFFFFF" d="M322.893,21.807c0.853,0.218,1.818,0.756,2.297,1.495c9.339,14.412,9.789,14.12,19.128,28.532
					c9.339,14.413,8.314,15.077,17.653,29.49s10.322,13.775,19.661,28.188c9.34,14.415,9.227,14.488,18.567,28.902
					c9.34,14.415,9.998,13.988,19.338,28.402c0.479,0.738-0.402,1.317-1.159,0.868c-14.773-8.756-14.54-9.15-29.313-17.906
					c-14.773-8.757-15.323-7.829-30.097-16.586c-14.773-8.756-14.244-9.65-29.018-18.406c-14.775-8.758-14.792-8.728-29.568-17.486
					s-14.621-9.019-29.396-17.777c-0.757-0.449-1.718-0.87-1.97-1.713c-5.574-18.661-4.959-18.845-10.534-37.506
					S252.375,21.801,246.8,3.14c-0.252-0.843-0.239-0.834,0.614-0.616c18.869,4.826,18.815,5.016,37.65,9.971
					C303.9,17.451,304.025,16.981,322.893,21.807z"/>
				<path fill="none" stroke="#5C1500" stroke-width="3.2" stroke-miterlimit="10" d="M322.893,21.807
					c0.853,0.218,1.818,0.756,2.297,1.495c9.339,14.412,9.789,14.12,19.128,28.532c9.339,14.413,8.314,15.077,17.653,29.49
					s10.322,13.775,19.661,28.188c9.34,14.415,9.227,14.488,18.567,28.902c9.34,14.415,9.998,13.988,19.338,28.402
					c0.479,0.738-0.402,1.317-1.159,0.868c-14.773-8.756-14.54-9.15-29.313-17.906c-14.773-8.757-15.323-7.829-30.097-16.586
					c-14.773-8.756-14.244-9.65-29.018-18.406c-14.775-8.758-14.792-8.728-29.568-17.486s-14.621-9.019-29.396-17.777
					c-0.757-0.449-1.718-0.87-1.97-1.713c-5.574-18.661-4.959-18.845-10.534-37.506S252.375,21.801,246.8,3.14
					c-0.252-0.843-0.239-0.834,0.614-0.616c18.869,4.826,18.815,5.016,37.65,9.971C303.9,17.451,304.025,16.981,322.893,21.807z"/>
			</g>
			<g>
				<path fill="none" stroke="#5C1500" stroke-width="4" stroke-miterlimit="10" d="M316.204,32.662
					c0.853,0.218,1.51,1.107,1.988,1.845c10.406,16.06,10.635,15.912,21.041,31.972c10.408,16.063,11.325,15.468,21.732,31.53
					c10.408,16.062,9.244,16.816,19.652,32.878c0.479,0.738,0.79,0.589,0.033,0.141c-16.462-9.758-16.42-9.829-32.882-19.587
					c-16.464-9.759-16.918-8.994-33.383-18.753c-16.464-9.759-15.61-11.201-32.074-20.959c-0.757-0.449-1.498-0.866-1.75-1.709
					c-7.373-24.682-7.802-24.554-15.174-49.235c-0.252-0.843,0.082-1.228,0.935-1.009C291.226,26.359,291.247,26.279,316.204,32.662
					z"/>
			</g>
		</g>
	</g>
	<g>
		<path fill="#FFFFFF" d="M514.598,192.903c0.465,3.489-1.749,6.957-5.27,6.957c-19.065,0-19.065-0.442-38.131-0.442
			s-19.065-0.479-38.131-0.479c-19.066,0-19.066,0.26-38.133,0.26c-19.066,0-19.066,0.17-38.132,0.17
			c-19.068,0-19.068-0.147-38.137-0.147s-19.068-0.121-38.137-0.121c-3.52,0-6.748-2.843-6.283-6.333
			c3.154-23.656,4.555-23.469,7.709-47.126c0.465-3.489,3.054-7.188,6.574-7.188c17.732,0,17.732,1.097,35.464,1.097
			c17.732,0,17.732,0.092,35.465,0.092c17.733,0,17.733-0.001,35.466-0.001c17.732,0,17.732-1.214,35.465-1.214
			c17.735,0,17.735,0.726,35.471,0.726s17.735,0.113,35.47,0.113c3.521,0,6.272,2.861,6.737,6.35
			C510.971,169.304,511.443,169.247,514.598,192.903z"/>
		<path fill="none" stroke="#5C1500" stroke-width="3.2" stroke-miterlimit="10" d="M514.598,192.903
			c0.465,3.489-1.749,6.957-5.27,6.957c-19.065,0-19.065-0.442-38.131-0.442s-19.065-0.479-38.131-0.479
			c-19.066,0-19.066,0.26-38.133,0.26c-19.066,0-19.066,0.17-38.132,0.17c-19.068,0-19.068-0.147-38.137-0.147
			s-19.068-0.121-38.137-0.121c-3.52,0-6.748-2.843-6.283-6.333c3.154-23.656,4.555-23.469,7.709-47.126
			c0.465-3.489,3.054-7.188,6.574-7.188c17.732,0,17.732,1.097,35.464,1.097c17.732,0,17.732,0.092,35.465,0.092
			c17.733,0,17.733-0.001,35.466-0.001c17.732,0,17.732-1.214,35.465-1.214c17.735,0,17.735,0.726,35.471,0.726
			s17.735,0.113,35.47,0.113c3.521,0,6.272,2.861,6.737,6.35C510.971,169.304,511.443,169.247,514.598,192.903z"/>
	</g>
	<g>
		<path fill="#FFFFFF" d="M719.147,672.051c-3.851,2.949-10.15,3.799-11.154,3.969c-13.875,2.338-27.877,4.268-41.9,5.17
			c-12.158,0.783-23.754,1.075-35.033,1.625c-11.898,0.58-23.483,0.416-35.054,0.804c-11.569,0.388-23.118,1.326-35.027,1.59
			c-11.29,0.25-22.861,1.658-35.042,1.856c-11.85,0.193-23.626-0.988-35.308-0.835c-11.833,0.156-23.59,0.197-35.288,0.308
			c-11.815,0.11-23.568,0.223-35.284,0.281c-11.796,0.059-23.551,1.422-35.287,1.423c-11.776,0-23.53-1.149-35.285-1.214
			c-11.755-0.063-23.509-0.085-35.284-0.219c-11.735-0.134-23.491-0.15-35.285-0.36c-11.712-0.207-23.453-0.891-35.263-1.179
			c-11.695-0.284-23.468,0.19-35.297-0.179c-11.675-0.363-23.439-0.486-35.282-0.937c-13.129-0.499-26.237-2.012-39.377-2.739
			c-13.138-0.728-26.299-1.151-39.37-2.542c-1.734-0.185-20.553-1.805-25.104-5.954c-4.55-4.149-6.691-15.368-7.17-17.697
			c-1.884-9.163-4.593-18.231-5.589-27.569c-0.996-9.337-0.724-18.803-1.408-28.113c-0.863-11.749-1.414-23.511-2.021-35.28
			c-0.606-11.765-1.826-23.504-2.218-35.282c-0.391-11.775-0.691-23.558-0.908-35.339c-0.216-11.782,0.161-23.57,0.08-35.351
			c-0.082-11.787,0.173-23.567,0.187-35.345c0.013-11.45,0.071-22.902,0.172-34.362c0.102-11.452,0.143-22.904,0.375-34.359
			c0.231-11.454-0.462-22.934-0.06-34.382c0.403-11.451,1.331-22.883,1.946-34.32c0.615-11.441,1.452-22.868,2.321-34.288
			c0.682-8.967,0.78-18.063,1.769-27.057c0.988-8.994,2.466-17.967,4.329-26.783c0.491-2.325,4.906-13.917,8.406-16.618
			c3.5-2.699,10.477-3.891,11.481-4.06c13.875-2.338,28.017-3.514,42.042-4.417c12.159-0.783,23.798-0.234,35.076-0.784
			c11.899-0.58,23.421-1.954,34.991-2.342c11.569-0.387,23.124-1.483,35.033-1.747c11.29-0.25,22.894-0.021,35.074-0.219
			c12.092-0.197,24.189-0.272,36.286-0.429c12.094-0.156,24.187-0.668,36.283-0.777c12.094-0.109,24.193-0.258,36.29-0.316
			c12.095-0.058,24.194,0.938,36.291,0.938c12.096,0,24.196-1.083,36.292-1.02s24.193,0.323,36.288,0.455
			c12.097,0.131,24.179,1.278,36.272,1.483c12.095,0.205,24.205-0.354,36.297-0.07c12.094,0.285,24.184,0.741,36.273,1.11
			c12.092,0.37,24.145,1.772,36.23,2.232c13.13,0.5,23.746,1.246,34.386,1.974c10.638,0.727,21.35,0.504,34.419,1.895
			c1.733,0.186,21.397,2.665,25.365,5.765c3.967,3.101,6.531,15.598,7.011,17.928c1.884,9.162,3.182,18.393,4.178,27.731
			c0.996,9.337,1.876,18.674,2.56,27.985c0.862,11.749,1.153,23.521,1.76,35.29c0.606,11.765,1.195,23.518,1.587,35.295
			c0.392,11.775,1.517,23.528,1.732,35.309c0.217,11.783,0.876,23.56,0.958,35.341c0.081,11.787-1.073,23.572-1.086,35.35
			c-0.013,11.45,1.546,22.916,1.444,34.376c-0.102,11.452-1.04,22.903-1.272,34.358c-0.231,11.454-1.16,22.887-1.563,34.334
			c-0.403,11.451-1.399,22.861-2.015,34.299c-0.615,11.441-0.306,22.932-1.174,34.353c-0.682,8.967-1.847,17.947-2.835,26.941
			s-1.827,18.004-3.69,26.82C727.203,658.479,722.997,669.101,719.147,672.051z"/>
		<path fill="none" stroke="#5C1500" stroke-width="3.2" stroke-miterlimit="10" d="M719.147,672.051
			c-3.851,2.949-10.15,3.799-11.154,3.969c-13.875,2.338-27.877,4.268-41.9,5.17c-12.158,0.783-23.754,1.075-35.033,1.625
			c-11.898,0.58-23.483,0.416-35.054,0.804c-11.569,0.388-23.118,1.326-35.027,1.59c-11.29,0.25-22.861,1.658-35.042,1.856
			c-11.85,0.193-23.626-0.988-35.308-0.835c-11.833,0.156-23.59,0.197-35.288,0.308c-11.815,0.11-23.568,0.223-35.284,0.281
			c-11.796,0.059-23.551,1.422-35.287,1.423c-11.776,0-23.53-1.149-35.285-1.214c-11.755-0.063-23.509-0.085-35.284-0.219
			c-11.735-0.134-23.491-0.15-35.285-0.36c-11.712-0.207-23.453-0.891-35.263-1.179c-11.695-0.284-23.468,0.19-35.297-0.179
			c-11.675-0.363-23.439-0.486-35.282-0.937c-13.129-0.499-26.237-2.012-39.377-2.739c-13.138-0.728-26.299-1.151-39.37-2.542
			c-1.734-0.185-20.553-1.805-25.104-5.954c-4.55-4.149-6.691-15.368-7.17-17.697c-1.884-9.163-4.593-18.231-5.589-27.569
			c-0.996-9.337-0.724-18.803-1.408-28.113c-0.863-11.749-1.414-23.511-2.021-35.28c-0.606-11.765-1.826-23.504-2.218-35.282
			c-0.391-11.775-0.691-23.558-0.908-35.339c-0.216-11.782,0.161-23.57,0.08-35.351c-0.082-11.787,0.173-23.567,0.187-35.345
			c0.013-11.45,0.071-22.902,0.172-34.362c0.102-11.452,0.143-22.904,0.375-34.359c0.231-11.454-0.462-22.934-0.06-34.382
			c0.403-11.451,1.331-22.883,1.946-34.32c0.615-11.441,1.452-22.868,2.321-34.288c0.682-8.967,0.78-18.063,1.769-27.057
			c0.988-8.994,2.466-17.967,4.329-26.783c0.491-2.325,4.906-13.917,8.406-16.618c3.5-2.699,10.477-3.891,11.481-4.06
			c13.875-2.338,28.017-3.514,42.042-4.417c12.159-0.783,23.798-0.234,35.076-0.784c11.899-0.58,23.421-1.954,34.991-2.342
			c11.569-0.387,23.124-1.483,35.033-1.747c11.29-0.25,22.894-0.021,35.074-0.219c12.092-0.197,24.189-0.272,36.286-0.429
			c12.094-0.156,24.187-0.668,36.283-0.777c12.094-0.109,24.193-0.258,36.29-0.316c12.095-0.058,24.194,0.938,36.291,0.938
			c12.096,0,24.196-1.083,36.292-1.02s24.193,0.323,36.288,0.455c12.097,0.131,24.179,1.278,36.272,1.483
			c12.095,0.205,24.205-0.354,36.297-0.07c12.094,0.285,24.184,0.741,36.273,1.11c12.092,0.37,24.145,1.772,36.23,2.232
			c13.13,0.5,23.746,1.246,34.386,1.974c10.638,0.727,21.35,0.504,34.419,1.895c1.733,0.186,21.397,2.665,25.365,5.765
			c3.967,3.101,6.531,15.598,7.011,17.928c1.884,9.162,3.182,18.393,4.178,27.731c0.996,9.337,1.876,18.674,2.56,27.985
			c0.862,11.749,1.153,23.521,1.76,35.29c0.606,11.765,1.195,23.518,1.587,35.295c0.392,11.775,1.517,23.528,1.732,35.309
			c0.217,11.783,0.876,23.56,0.958,35.341c0.081,11.787-1.073,23.572-1.086,35.35c-0.013,11.45,1.546,22.916,1.444,34.376
			c-0.102,11.452-1.04,22.903-1.272,34.358c-0.231,11.454-1.16,22.887-1.563,34.334c-0.403,11.451-1.399,22.861-2.015,34.299
			c-0.615,11.441-0.306,22.932-1.174,34.353c-0.682,8.967-1.847,17.947-2.835,26.941s-1.827,18.004-3.69,26.82
			C727.203,658.479,722.997,669.101,719.147,672.051z"/>
	</g>
</g>
<g id="レイヤー_2" display="none">
	<rect x="76" y="188" display="inline" width="640" height="480"/>
</g>
<g id="レイヤー_3">
	<path fill="#FFFFFF" d="M1543,585H903V105h640V585z M1527,121c0-8.836-136.105-16-304-16c-167.893,0-304,7.164-304,16
		c-8.836,0-16,100.288-16,224s7.164,224,16,224c0,8.836,136.105,16,304,16s304-7.164,304-16c8.836,0,16-100.288,16-224
		S1535.836,121,1527,121z"/>
	<g opacity="0.3">
		<path d="M1223,111c76.466,0,149.509,1.5,205.676,4.225c74.115,3.595,90.183,7.926,93.391,9.191c0.52,0.748,1.204,1.372,2.002,1.82
			c1.257,2.724,5.337,15.359,8.79,68.585c2.671,41.156,4.142,94.49,4.142,150.178c0,55.688-1.471,109.022-4.142,150.179
			c-3.453,53.226-7.533,65.861-8.79,68.585c-0.798,0.447-1.482,1.072-2.002,1.82c-3.208,1.265-19.275,5.596-93.391,9.191
			C1372.509,577.5,1299.466,579,1223,579s-149.509-1.5-205.676-4.225c-74.115-3.596-90.183-7.927-93.391-9.191
			c-0.52-0.748-1.204-1.373-2.002-1.82c-1.257-2.724-5.337-15.359-8.79-68.585C910.471,454.022,909,400.688,909,345
			c0-55.688,1.471-109.022,4.142-150.178c3.453-53.227,7.533-65.861,8.79-68.585c0.798-0.448,1.482-1.072,2.002-1.82
			c3.208-1.265,19.275-5.596,93.392-9.191C1073.492,112.5,1146.535,111,1223,111 M1223,105c-167.893,0-304,7.164-304,16
			c-8.836,0-16,100.288-16,224s7.164,224,16,224c0,8.836,136.105,16,304,16s304-7.164,304-16c8.836,0,16-100.288,16-224
			s-7.164-224-16-224C1527,112.164,1390.895,105,1223,105L1223,105z"/>
	</g>
</g>
<g id="レイヤー_4">
</g>
</svg>
