<?xml version="1.0" encoding="utf-8"?>
<!-- Generator: Adobe Illustrator 16.0.3, SVG Export Plug-In . SVG Version: 6.00 Build 0)  -->
<!DOCTYPE svg PUBLIC "-//W3C//DTD SVG 1.1//EN" "http://www.w3.org/Graphics/SVG/1.1/DTD/svg11.dtd">
<svg version="1.1" xmlns="http://www.w3.org/2000/svg" xmlns:xlink="http://www.w3.org/1999/xlink" x="0px" y="0px" width="640px"
	 height="480px" viewBox="0 0 640 480" enable-background="new 0 0 640 480" xml:space="preserve">
<g id="レイヤー_1">
	<g>
		<g>
			<g>
				<g>
					<path fill="#FFFFFF" d="M-178.555,533.484c2.425,7.918,15.649,10.895,28.498,10.941c13.456,0.049,26.229-3.351,27.269-11.097
						c1.089-9.256,1.91-21.309,2.715-35.442c0.612-10.776,2.408-22.684,2.854-35.498c0.392-11.281,0.33-23.234,0.591-35.592
						c0.244-11.561,0.777-23.486,0.905-35.59c0.124-11.759,0.058-23.689,0.072-35.602c0.014-11.938-0.457-23.863-0.555-35.6
						c-0.101-12.134,0.155-24.073-0.066-35.606c-0.237-12.405-1.773-24.313-2.151-35.552c-0.434-12.907-1.04-24.858-1.661-35.533
						c-0.846-14.541-1.146-26.696-2.342-35.472c-0.835-7.443-14.1-11.956-27.667-11.949c-12.938,0.006-25.972,4.138-28.2,11.919"/>
					<path fill="none" stroke="#5C1500" stroke-width="3.2" stroke-miterlimit="10" d="M-178.555,533.484
						c2.425,7.918,15.649,10.895,28.498,10.941c13.456,0.049,26.229-3.351,27.269-11.097c1.089-9.256,1.91-21.309,2.715-35.442
						c0.612-10.776,2.408-22.684,2.854-35.498c0.392-11.281,0.33-23.234,0.591-35.592c0.244-11.561,0.777-23.486,0.905-35.59
						c0.124-11.759,0.058-23.689,0.072-35.602c0.014-11.938-0.457-23.863-0.555-35.6c-0.101-12.134,0.155-24.073-0.066-35.606
						c-0.237-12.405-1.773-24.313-2.151-35.552c-0.434-12.907-1.04-24.858-1.661-35.533c-0.846-14.541-1.146-26.696-2.342-35.472
						c-0.835-7.443-14.1-11.956-27.667-11.949c-12.938,0.006-25.972,4.138-28.2,11.919"/>
				</g>
			</g>
			<g>
				<path fill="#FFFFFF" d="M-149.477,167.229c0.906,10.453,2.595,21.917,3.305,34.243c0.627,10.882,0.513,22.43,0.993,34.388
					c0.447,11.117,1.513,22.603,1.838,34.35c0.312,11.277-0.591,22.807-0.386,34.404c0.201,11.411,0.657,22.908,0.759,34.383
					c0.103,11.535-0.292,23.038-0.286,34.391c0.006,11.671,0.556,23.181,0.464,34.394c-0.097,11.846-0.084,23.363-0.285,34.39
					c-0.221,12.122-0.691,23.649-1.031,34.378c-0.401,12.692-0.357,24.29-0.913,34.39c-0.83,15.08-2.926,26.758-4.067,34.121"/>
				<path fill="none" stroke="#5C1500" stroke-width="8.8" stroke-miterlimit="10" d="M-149.477,167.229
					c0.906,10.453,2.595,21.917,3.305,34.243c0.627,10.882,0.513,22.43,0.993,34.388c0.447,11.117,1.513,22.603,1.838,34.35
					c0.312,11.277-0.591,22.807-0.386,34.404c0.201,11.411,0.657,22.908,0.759,34.383c0.103,11.535-0.292,23.038-0.286,34.391
					c0.006,11.671,0.556,23.181,0.464,34.394c-0.097,11.846-0.084,23.363-0.285,34.39c-0.221,12.122-0.691,23.649-1.031,34.378
					c-0.401,12.692-0.357,24.29-0.913,34.39c-0.83,15.08-2.926,26.758-4.067,34.121"/>
			</g>
		</g>
	</g>
	<g>
		<g>
			<g>
				<g>
					<path fill="#FFFFFF" d="M-836.714,532.517c-2.425,7.917-15.097,12.53-27.945,12.577c-13.456,0.049-27.376-4.677-28.416-12.422
						c-1.089-9.257-2.163-21.371-2.967-35.505c-0.613-10.776,0.124-22.803-0.322-35.617c-0.392-11.281-1.107-23.203-1.368-35.561
						c-0.244-11.561-0.083-23.49-0.211-35.594c-0.125-11.759-0.33-23.677-0.344-35.591c-0.014-11.938-0.402-23.862-0.305-35.599
						c0.101-12.134,0.678-24.06,0.898-35.593c0.238-12.405-0.683-24.384-0.305-35.623c0.434-12.907,0.881-24.909,1.502-35.584
						c0.846-14.541,2.585-26.64,3.782-35.417c0.835-7.443,14.52-10.931,28.086-10.924c12.937,0.006,25.947,3.173,28.175,10.954"/>
					<path fill="none" stroke="#5C1500" stroke-width="3.2" stroke-miterlimit="10" d="M-836.714,532.517
						c-2.425,7.917-15.097,12.53-27.945,12.577c-13.456,0.049-27.376-4.677-28.416-12.422c-1.089-9.257-2.163-21.371-2.967-35.505
						c-0.613-10.776,0.124-22.803-0.322-35.617c-0.392-11.281-1.107-23.203-1.368-35.561c-0.244-11.561-0.083-23.49-0.211-35.594
						c-0.125-11.759-0.33-23.677-0.344-35.591c-0.014-11.938-0.402-23.862-0.305-35.599c0.101-12.134,0.678-24.06,0.898-35.593
						c0.238-12.405-0.683-24.384-0.305-35.623c0.434-12.907,0.881-24.909,1.502-35.584c0.846-14.541,2.585-26.64,3.782-35.417
						c0.835-7.443,14.52-10.931,28.086-10.924c12.937,0.006,25.947,3.173,28.175,10.954"/>
				</g>
			</g>
			<g>
				<path fill="none" stroke="#5C1500" stroke-width="8.8" stroke-miterlimit="10" d="M-865.7,166.389
					c-0.907,10.453-0.831,22.031-1.541,34.357c-0.627,10.882-1.846,22.354-2.327,34.312c-0.447,11.117-0.15,22.641-0.476,34.388
					c-0.313,11.278-1.729,22.752-1.934,34.35c-0.202,11.411-0.047,22.922-0.149,34.397c-0.102,11.534-0.601,23.042-0.606,34.394
					c-0.006,11.671,0.633,23.181,0.725,34.394c0.097,11.846,0.411,23.359,0.611,34.386c0.221,12.122,0.313,23.657,0.651,34.386
					c0.401,12.692,1.409,24.235,1.965,34.335c0.83,15.081,0.726,27.008,1.868,34.371"/>
			</g>
		</g>
	</g>
	<g>
		<g>
			<g>
				<path fill="#5C1500" d="M-369.802-15.396c-0.341,0.812-1.278,1.28-2.078,1.646c-15.623,7.13-15.337,7.758-30.96,14.888
					c-15.623,7.131-15.99,6.327-31.614,13.458c-15.623,7.13-15.253,7.941-30.876,15.072c-15.626,7.131-15.292,7.863-30.918,14.995
					c-15.625,7.131-16.328,5.592-31.953,12.724c-0.801,0.365-0.091,1.336,0.463,0.653c10.823-13.333,10.144-13.885,20.966-27.219
					c10.822-13.333,10.71-13.425,21.532-26.758c10.823-13.334,11.521-12.768,22.344-26.102
					c10.824-13.336,10.44-13.647,21.266-26.983c10.824-13.336,10.531-13.574,21.355-26.91c0.555-0.683,1.867-1.677,2.738-1.803
					c19.275-2.785,19.392-1.979,38.668-4.763c19.275-2.785,19.205-3.273,38.481-6.058c0.871-0.126,0.612,0.324,0.271,1.135
					c-7.533,17.959-6.67,18.322-14.295,36.244C-362.035-33.257-362.269-33.356-369.802-15.396z"/>
				<path fill="none" stroke="#FFFFFF" stroke-width="3.2" stroke-miterlimit="10" d="M-369.802-15.396
					c-0.341,0.812-1.278,1.28-2.078,1.646c-15.623,7.13-15.337,7.758-30.96,14.888c-15.623,7.131-15.99,6.327-31.614,13.458
					c-15.623,7.13-15.253,7.941-30.876,15.072c-15.626,7.131-15.292,7.863-30.918,14.995c-15.625,7.131-16.328,5.592-31.953,12.724
					c-0.801,0.365-0.091,1.336,0.463,0.653c10.823-13.333,10.144-13.885,20.966-27.219c10.822-13.333,10.71-13.425,21.532-26.758
					c10.823-13.334,11.521-12.768,22.344-26.102c10.824-13.336,10.44-13.647,21.266-26.983
					c10.824-13.336,10.531-13.574,21.355-26.91c0.555-0.683,1.867-1.677,2.738-1.803c19.275-2.785,19.392-1.979,38.668-4.763
					c19.275-2.785,19.205-3.273,38.481-6.058c0.871-0.126,0.612,0.324,0.271,1.135c-7.533,17.959-6.67,18.322-14.295,36.244
					C-362.035-33.257-362.269-33.356-369.802-15.396z"/>
			</g>
			<g>
				<path fill="none" stroke="#FFFFFF" stroke-width="4" stroke-miterlimit="10" d="M-378.714-23.246
					c-0.341,0.812-1.723,2.113-2.522,2.479c-17.409,7.946-17.847,6.988-35.256,14.933c-17.412,7.947-17.503,7.748-34.914,15.694
					c-17.412,7.947-17.276,8.245-34.688,16.192c-0.8,0.366-1.187,0.084-0.632-0.599c12.061-14.858,12.016-14.895,24.076-29.753
					c12.062-14.86,12.764-14.291,24.826-29.15c12.062-14.86,11.084-15.654,23.146-30.514c0.555-0.683,2.456,0.064,3.327-0.062
					c25.494-3.684,25.485-3.748,50.979-7.431c0.871-0.126,1.973-0.119,1.632,0.693C-367.981-46.713-368.75-47-378.714-23.246z"/>
			</g>
		</g>
	</g>
	<g>
		<g>
			<g>
				<path fill="#FFFFFF" d="M-578.851-83.192c0.853,0.218,2.208,1.337,2.687,2.076c9.339,14.412,9.455,14.337,18.793,28.749
					c9.339,14.413,9.29,14.445,18.629,28.857c9.338,14.413,8.661,14.852,18,29.264c9.34,14.414,9.541,14.284,18.881,28.699
					c9.34,14.414,9.601,14.245,18.94,28.659c0.479,0.738-0.419,1.821-1.176,1.373c-14.772-8.756-13.952-10.141-28.725-18.897
					c-14.774-8.757-14.711-8.863-29.484-17.62s-15.021-8.338-29.795-17.095c-14.775-8.758-15.108-8.197-29.883-16.955
					s-14.215-9.702-28.991-18.46c-0.757-0.449-2.454-0.597-2.706-1.44c-5.574-18.661-5.303-18.742-10.877-37.403
					c-5.574-18.661-6.314-18.44-11.889-37.101c-0.252-0.843,1.101-1.571,1.954-1.353c18.869,4.826,19.009,4.247,37.929,8.869
					C-597.641-88.349-597.72-88.018-578.851-83.192z"/>
				<path fill="none" stroke="#5C1500" stroke-width="3.2" stroke-miterlimit="10" d="M-578.851-83.192
					c0.853,0.218,2.208,1.337,2.687,2.076c9.339,14.412,9.455,14.337,18.793,28.749c9.339,14.413,9.29,14.445,18.629,28.857
					c9.338,14.413,8.661,14.852,18,29.264c9.34,14.414,9.541,14.284,18.881,28.699c9.34,14.414,9.601,14.245,18.94,28.659
					c0.479,0.738-0.419,1.821-1.176,1.373c-14.772-8.756-13.952-10.141-28.725-18.897c-14.774-8.757-14.711-8.863-29.484-17.62
					s-15.021-8.338-29.795-17.095c-14.775-8.758-15.108-8.197-29.883-16.955s-14.215-9.702-28.991-18.46
					c-0.757-0.449-2.454-0.597-2.706-1.44c-5.574-18.661-5.303-18.742-10.877-37.403c-5.574-18.661-6.314-18.44-11.889-37.101
					c-0.252-0.843,1.101-1.571,1.954-1.353c18.869,4.826,19.009,4.247,37.929,8.869C-597.641-88.349-597.72-88.018-578.851-83.192z"
					/>
			</g>
			<g>
				<path fill="none" stroke="#5C1500" stroke-width="4" stroke-miterlimit="10" d="M-585.92-70.854
					c0.853,0.218,1.985,0.394,2.464,1.133c10.406,16.06,10.096,16.261,20.502,32.321c10.408,16.063,10.842,15.781,21.25,31.843
					c10.407,16.063,10.272,16.15,20.68,32.212c0.479,0.738,0.838,0.135,0.081-0.313c-16.462-9.758-17.178-8.551-33.64-18.309
					c-16.464-9.759-16.084-10.4-32.549-20.159c-16.464-9.759-16.7-9.362-33.164-19.121c-0.757-0.449-1.258-1.781-1.51-2.624
					c-7.373-24.681-8.143-24.451-15.516-49.133c-0.252-0.843,1.08-2.462,1.933-2.244C-610.61-78.197-610.876-77.237-585.92-70.854z"
					/>
			</g>
		</g>
	</g>
	<g>
		<path fill="#FFFFFF" d="M-387.402,88.903c0.465,3.489-1.749,6.957-5.27,6.957c-19.065,0-19.065-0.442-38.131-0.442
			s-19.065-0.479-38.131-0.479c-19.066,0-19.066,0.26-38.133,0.26c-19.066,0-19.066,0.17-38.132,0.17
			c-19.068,0-19.068-0.147-38.137-0.147s-19.068-0.121-38.137-0.121c-3.52,0-6.748-2.844-6.283-6.333
			c3.154-23.656,4.555-23.47,7.709-47.126c0.465-3.489,3.054-7.188,6.574-7.188c17.732,0,17.732,1.097,35.464,1.097
			c17.732,0,17.732,0.092,35.465,0.092c17.733,0,17.733-0.001,35.466-0.001c17.732,0,17.732-1.215,35.465-1.215
			c17.735,0,17.735,0.726,35.471,0.726s17.735,0.113,35.47,0.113c3.521,0,6.272,2.861,6.737,6.35
			C-391.029,65.304-390.557,65.247-387.402,88.903z"/>
		<path fill="none" stroke="#5C1500" stroke-width="3.2" stroke-miterlimit="10" d="M-387.402,88.903
			c0.465,3.489-1.749,6.957-5.27,6.957c-19.065,0-19.065-0.442-38.131-0.442s-19.065-0.479-38.131-0.479
			c-19.066,0-19.066,0.26-38.133,0.26c-19.066,0-19.066,0.17-38.132,0.17c-19.068,0-19.068-0.147-38.137-0.147
			s-19.068-0.121-38.137-0.121c-3.52,0-6.748-2.844-6.283-6.333c3.154-23.656,4.555-23.47,7.709-47.126
			c0.465-3.489,3.054-7.188,6.574-7.188c17.732,0,17.732,1.097,35.464,1.097c17.732,0,17.732,0.092,35.465,0.092
			c17.733,0,17.733-0.001,35.466-0.001c17.732,0,17.732-1.215,35.465-1.215c17.735,0,17.735,0.726,35.471,0.726
			s17.735,0.113,35.47,0.113c3.521,0,6.272,2.861,6.737,6.35C-391.029,65.304-390.557,65.247-387.402,88.903z"/>
	</g>
	<g>
		<path fill="#FFFFFF" d="M-182.853,568.051c-3.851,2.949-10.15,3.799-11.154,3.969c-13.875,2.338-27.877,4.268-41.9,5.17
			c-12.158,0.783-23.754,1.075-35.033,1.625c-11.898,0.58-23.483,0.415-35.054,0.803c-11.569,0.389-23.118,1.327-35.027,1.591
			c-11.29,0.25-22.861,1.658-35.042,1.856c-11.85,0.193-23.626-0.988-35.308-0.835c-11.833,0.156-23.59,0.197-35.288,0.308
			c-11.815,0.111-23.568,0.223-35.284,0.281c-11.797,0.059-23.551,1.422-35.287,1.423c-11.776,0.001-23.53-1.149-35.285-1.214
			c-11.755-0.063-23.509-0.085-35.284-0.219c-11.734-0.134-23.49-0.15-35.285-0.359c-11.712-0.208-23.453-0.892-35.263-1.18
			c-11.695-0.284-23.468,0.19-35.297-0.179c-11.675-0.363-23.439-0.486-35.282-0.937c-13.129-0.499-26.237-2.012-39.377-2.739
			c-13.138-0.728-26.299-1.151-39.37-2.542c-1.734-0.185-20.553-1.805-25.104-5.954c-4.55-4.149-6.691-15.368-7.17-17.697
			c-1.884-9.163-4.593-18.231-5.589-27.569c-0.996-9.337-0.724-18.803-1.408-28.113c-0.863-11.749-1.414-23.511-2.021-35.28
			c-0.607-11.765-1.826-23.505-2.218-35.282c-0.391-11.775-0.691-23.558-0.908-35.339c-0.216-11.782,0.161-23.57,0.08-35.351
			c-0.082-11.787,0.173-23.567,0.187-35.345c0.013-11.45,0.071-22.902,0.172-34.362c0.102-11.452,0.143-22.904,0.375-34.359
			c0.231-11.454-0.462-22.934-0.06-34.382c0.403-11.45,1.331-22.882,1.946-34.32c0.615-11.441,1.452-22.868,2.321-34.288
			c0.682-8.967,0.78-18.063,1.769-27.056c0.988-8.995,2.466-17.967,4.329-26.784c0.491-2.325,4.906-13.917,8.406-16.617
			s10.477-3.892,11.481-4.061c13.875-2.338,28.017-3.514,42.042-4.417c12.159-0.783,23.798-0.234,35.076-0.784
			c11.899-0.581,23.421-1.954,34.991-2.342c11.569-0.388,23.124-1.483,35.033-1.747c11.29-0.25,22.894-0.021,35.074-0.219
			c12.092-0.197,24.189-0.272,36.286-0.429c12.094-0.156,24.187-0.668,36.283-0.777c12.095-0.109,24.193-0.258,36.29-0.315
			c12.095-0.058,24.195,0.938,36.291,0.938s24.196-1.083,36.292-1.02s24.193,0.323,36.289,0.455s24.178,1.278,36.271,1.483
			c12.095,0.205,24.205-0.354,36.297-0.07c12.094,0.285,24.184,0.741,36.273,1.11c12.092,0.37,24.145,1.772,36.23,2.232
			c13.13,0.5,23.746,1.246,34.386,1.974c10.638,0.728,21.35,0.505,34.419,1.896c1.733,0.185,21.397,2.665,25.365,5.765
			c3.967,3.1,6.531,15.597,7.011,17.927c1.884,9.163,3.182,18.393,4.178,27.731c0.996,9.336,1.876,18.674,2.56,27.985
			c0.862,11.749,1.153,23.521,1.76,35.29c0.606,11.765,1.195,23.517,1.587,35.295c0.392,11.775,1.517,23.527,1.732,35.308
			c0.217,11.783,0.876,23.561,0.958,35.342c0.081,11.787-1.073,23.572-1.086,35.35c-0.013,11.45,1.546,22.916,1.444,34.376
			c-0.102,11.453-1.04,22.903-1.272,34.358c-0.231,11.454-1.16,22.887-1.563,34.335c-0.402,11.451-1.399,22.86-2.015,34.298
			c-0.615,11.441-0.306,22.932-1.174,34.353c-0.682,8.967-1.847,17.947-2.835,26.941s-1.827,18.004-3.69,26.82
			C-174.797,554.479-179.003,565.101-182.853,568.051z"/>
		<path fill="none" stroke="#5C1500" stroke-width="3.2" stroke-miterlimit="10" d="M-182.853,568.051
			c-3.851,2.949-10.15,3.799-11.154,3.969c-13.875,2.338-27.877,4.268-41.9,5.17c-12.158,0.783-23.754,1.075-35.033,1.625
			c-11.898,0.58-23.483,0.415-35.054,0.803c-11.569,0.389-23.118,1.327-35.027,1.591c-11.29,0.25-22.861,1.658-35.042,1.856
			c-11.85,0.193-23.626-0.988-35.308-0.835c-11.833,0.156-23.59,0.197-35.288,0.308c-11.815,0.111-23.568,0.223-35.284,0.281
			c-11.797,0.059-23.551,1.422-35.287,1.423c-11.776,0.001-23.53-1.149-35.285-1.214c-11.755-0.063-23.509-0.085-35.284-0.219
			c-11.734-0.134-23.49-0.15-35.285-0.359c-11.712-0.208-23.453-0.892-35.263-1.18c-11.695-0.284-23.468,0.19-35.297-0.179
			c-11.675-0.363-23.439-0.486-35.282-0.937c-13.129-0.499-26.237-2.012-39.377-2.739c-13.138-0.728-26.299-1.151-39.37-2.542
			c-1.734-0.185-20.553-1.805-25.104-5.954c-4.55-4.149-6.691-15.368-7.17-17.697c-1.884-9.163-4.593-18.231-5.589-27.569
			c-0.996-9.337-0.724-18.803-1.408-28.113c-0.863-11.749-1.414-23.511-2.021-35.28c-0.607-11.765-1.826-23.505-2.218-35.282
			c-0.391-11.775-0.691-23.558-0.908-35.339c-0.216-11.782,0.161-23.57,0.08-35.351c-0.082-11.787,0.173-23.567,0.187-35.345
			c0.013-11.45,0.071-22.902,0.172-34.362c0.102-11.452,0.143-22.904,0.375-34.359c0.231-11.454-0.462-22.934-0.06-34.382
			c0.403-11.45,1.331-22.882,1.946-34.32c0.615-11.441,1.452-22.868,2.321-34.288c0.682-8.967,0.78-18.063,1.769-27.056
			c0.988-8.995,2.466-17.967,4.329-26.784c0.491-2.325,4.906-13.917,8.406-16.617s10.477-3.892,11.481-4.061
			c13.875-2.338,28.017-3.514,42.042-4.417c12.159-0.783,23.798-0.234,35.076-0.784c11.899-0.581,23.421-1.954,34.991-2.342
			c11.569-0.388,23.124-1.483,35.033-1.747c11.29-0.25,22.894-0.021,35.074-0.219c12.092-0.197,24.189-0.272,36.286-0.429
			c12.094-0.156,24.187-0.668,36.283-0.777c12.095-0.109,24.193-0.258,36.29-0.315c12.095-0.058,24.195,0.938,36.291,0.938
			s24.196-1.083,36.292-1.02s24.193,0.323,36.289,0.455s24.178,1.278,36.271,1.483c12.095,0.205,24.205-0.354,36.297-0.07
			c12.094,0.285,24.184,0.741,36.273,1.11c12.092,0.37,24.145,1.772,36.23,2.232c13.13,0.5,23.746,1.246,34.386,1.974
			c10.638,0.728,21.35,0.505,34.419,1.896c1.733,0.185,21.397,2.665,25.365,5.765c3.967,3.1,6.531,15.597,7.011,17.927
			c1.884,9.163,3.182,18.393,4.178,27.731c0.996,9.336,1.876,18.674,2.56,27.985c0.862,11.749,1.153,23.521,1.76,35.29
			c0.606,11.765,1.195,23.517,1.587,35.295c0.392,11.775,1.517,23.527,1.732,35.308c0.217,11.783,0.876,23.561,0.958,35.342
			c0.081,11.787-1.073,23.572-1.086,35.35c-0.013,11.45,1.546,22.916,1.444,34.376c-0.102,11.453-1.04,22.903-1.272,34.358
			c-0.231,11.454-1.16,22.887-1.563,34.335c-0.402,11.451-1.399,22.86-2.015,34.298c-0.615,11.441-0.306,22.932-1.174,34.353
			c-0.682,8.967-1.847,17.947-2.835,26.941s-1.827,18.004-3.69,26.82C-174.797,554.479-179.003,565.101-182.853,568.051z"/>
	</g>
</g>
<g id="レイヤー_2" display="none">
	<rect x="-827" y="83" display="inline" width="640" height="480"/>
</g>
<g id="レイヤー_3">
	<path fill="#FFFFFF" d="M640,480H0V0h640V480z M624,16c0-8.836-136.105-16-304-16C152.107,0,16,7.164,16,16
		C7.164,16,0,116.288,0,240s7.164,224,16,224c0,8.836,136.105,16,304,16s304-7.164,304-16c8.836,0,16-100.288,16-224
		S632.836,16,624,16z"/>
	<g opacity="0.3">
		<path d="M320,6c76.466,0,149.509,1.5,205.676,4.225c74.115,3.595,90.183,7.926,93.391,9.191c0.52,0.748,1.204,1.372,2.002,1.82
			c1.257,2.724,5.337,15.359,8.79,68.585C632.529,130.978,634,184.312,634,240c0,55.688-1.471,109.022-4.142,150.179
			c-3.453,53.226-7.533,65.861-8.79,68.585c-0.798,0.447-1.482,1.072-2.002,1.82c-3.208,1.265-19.275,5.596-93.391,9.191
			C469.509,472.5,396.466,474,320,474s-149.509-1.5-205.676-4.225c-74.115-3.596-90.183-7.927-93.391-9.191
			c-0.52-0.748-1.204-1.373-2.002-1.82c-1.257-2.724-5.337-15.359-8.79-68.585C7.471,349.022,6,295.688,6,240
			c0-55.688,1.471-109.022,4.142-150.178c3.453-53.227,7.533-65.861,8.79-68.585c0.798-0.448,1.482-1.072,2.002-1.82
			c3.208-1.265,19.275-5.596,93.392-9.191C170.492,7.5,243.535,6,320,6 M320,0C152.107,0,16,7.164,16,16C7.164,16,0,116.288,0,240
			s7.164,224,16,224c0,8.836,136.105,16,304,16s304-7.164,304-16c8.836,0,16-100.288,16-224s-7.164-224-16-224
			C624,7.164,487.895,0,320,0L320,0z"/>
	</g>
</g>
<g id="レイヤー_4">
</g>
</svg>
